<svg xmlns="http://www.w3.org/2000/svg" class="ionicon" viewBox="0 0 512 512">
  <title
     id="title2">Heart</title>
  <path
     d="M256 448a32 32 0 01-18-5.57c-78.59-53.35-112.62-89.93-131.39-112.8-40-48.75-59.15-98.8-58.61-153C48.63 114.52 98.46 64 159.08 64c44.08 0 74.61 24.83 92.39 45.51a6 6 0 009.06 0C278.31 88.81 308.84 64 352.92 64c60.62 0 110.45 50.52 111.08 112.64.54 54.21-18.63 104.26-58.61 153-18.77 22.87-52.8 59.45-131.39 112.8a32 32 0 01-18 5.56z"
     id="path4" />
  <path
     style="fill:#ff0000;stroke-width:0.815287"
     d="m 251.8069,447.09982 c -6.32535,-0.80111 -11.54978,-3.60645 -27.19544,-14.60298 -24.57648,-17.27357 -45.81625,-33.62335 -65.22292,-50.2068 C 145.82278,370.69779 118.56181,343.26705 108.71687,331.30281 81.1257,297.77211 63.778225,265.27927 55.039394,230.76177 50.1634,211.50207 48.986349,201.76312 48.975141,180.58599 c -0.009,-17.08812 0.140275,-18.97721 2.181102,-27.59388 9.385936,-39.62882 36.975722,-70.420888 74.267337,-82.887374 11.376,-3.802963 21.00317,-5.340067 33.57844,-5.361235 11.91601,-0.02006 18.54362,0.830535 29.49838,3.785851 20.30674,5.478249 37.1064,15.774491 55.66438,34.115808 7.59225,7.50361 10.03662,9.45675 11.83522,9.45675 1.7986,0 4.24297,-1.95314 11.83522,-9.45675 18.55798,-18.341317 35.35764,-28.637559 55.66438,-34.115808 10.95476,-2.955316 17.58237,-3.80591 29.49838,-3.785851 12.57527,0.02117 22.20244,1.558272 33.57843,5.361235 37.44206,12.516777 64.84429,43.155424 74.31298,83.089924 1.98732,8.3816 2.14446,10.39726 2.13547,27.39133 -0.0112,21.17713 -1.18826,30.91608 -6.06426,50.17578 -14.6781,57.97706 -54.12939,111.6044 -122.69308,166.78047 -22.19186,17.8587 -58.01359,43.57657 -65.45953,46.99602 -5.14995,2.36506 -11.27087,3.28729 -17.00109,2.56156 z"
     id="path85" />
  <path
     style="fill:#ff0000;stroke-width:0.815287"
     d="m 249.66887,446.34379 c -4.61016,-1.15544 -8.94833,-3.56063 -20.02665,-11.10329 C 169.55951,394.33335 122.84744,351.62732 93.898404,311.13816 71.651962,280.02349 57.248148,246.31453 51.337491,211.53372 49.32688,199.70244 48.783042,168.33 50.425669,158.93327 57.298471,119.61708 85.215406,85.671659 122.09165,71.791478 c 19.53258,-7.352042 43.31275,-8.61571 63.83301,-3.392056 21.06328,5.361887 35.79604,14.006292 55.86121,32.776408 10.74937,10.05558 13.01611,11.54558 16.08333,10.57208 0.86857,-0.27567 6.4449,-5.05285 12.39182,-10.61594 20.01523,-18.723404 34.76724,-27.374787 55.81432,-32.732548 37.75029,-9.609747 78.26767,2.318763 105.46308,31.048832 15.21389,16.072436 26.27714,37.982786 30.03591,59.485016 1.64263,9.39673 1.09879,40.76917 -0.91182,52.60045 -11.0839,65.22239 -49.62781,122.39516 -123.19637,182.73907 -22.65838,18.58532 -58.68533,44.53668 -68.41921,49.28454 -6.28621,3.06621 -13.89591,4.16043 -19.37806,2.78646 z"
     id="path161" />
</svg>
